<svg xmlns="http://www.w3.org/2000/svg" viewBox="0 0 232.8 228.3">
  <style>
    .st1{fill:#e1dfdd}.st3{fill:#be906b}.st4{fill:#59453c}.st5{fill:#a6a7dc}.st8{fill:#3a312e}.st10{fill:#bf8f68}.st13{fill:#dcb38b}.st14{fill:#594539}.st22{fill:#fadcbd}.st23{fill:#e0bb95}.st26{fill:#e2e2f6}.st28{fill:#8b8cc7}
  </style>
  <path fill="#f3f2f1" d="M124.5 90.6h-25C92.6 90.6 87 85 87 78.1v-10c0-6.9 5.6-12.5 12.5-12.5h25c6.9 0 12.5 5.6 12.5 12.5v10c0 6.9-5.6 12.5-12.5 12.5z"/>
  <path d="M118.4 81.2h-12.7c-2.5 0-4.5-2-4.5-4.5s2-4.5 4.5-4.5h12.7c2.5 0 4.5 2 4.5 4.5 0 2.4-2 4.5-4.5 4.5z" class="st1"/>
  <circle cx="190.4" cy="49.3" r="42.3" fill="#f7c6c8"/>
  <path d="m169.4 44.3 5-1-1.9-9.5-5 1c-2.6.5-4.3 3.1-3.8 5.7.6 2.6 3.1 4.3 5.7 3.8z" class="st3"/>
  <ellipse cx="186.8" cy="26" class="st4" rx="23.2" ry="24" transform="rotate(-11.246 186.807162 25.990761)"/>
  <path d="M167.6 43.2c8.3 10.6-.8 21.1-.8 21.1l43.6-2.6s-4.9-5.2-.7-17.8c3.2-9.7 6.3-25.5-9-37-7.8-5.8-35.6 30.5-33.1 36.3z" class="st4"/>
  <path d="M166.7 84.3c6.8 4.6 14.9 7.3 23.7 7.3 13.8 0 26.1-6.7 33.9-16.9-5.7-9.4-15.6-15.7-26.8-15.7-14.7 0-27.1 10.7-30.8 25.3z" class="st5"/>
  <radialGradient id="SVGID_1_" cx="189.7466" cy="306.3699" r="12.7844" gradientTransform="translate(0 -264.4716)" gradientUnits="userSpaceOnUse">
    <stop offset="0" stop-color="#9a6541"/>
    <stop offset="1" stop-color="#be906b"/>
  </radialGradient>
  <path fill="url(#SVGID_1_)" d="m200.2 36-13.7 4.7s3.6 14.3 1.1 17.8c-1.7 2.4-5.8 4.9-5.8 4.9H213s-4.1-.7-8.8-8.6c-2.1-3.8-4-18.8-4-18.8z"/>
  <path d="M179.1 10c-9.6 1.9-15.9 11.3-13.9 20.9 2.4 12.2 12.4 24.5 22.9 22.4 10.5-2.1 14.4-17.2 11.9-29.4C197.8 13.5 184.2 9 179.1 10z" class="st3"/>
  <path d="M200.6 28.8s-15.3-5.7-17.2-15.1c-1.3-6.2 5.2-9.3 5.2-9.3s16.6 8.8 12 24.4z" class="st4"/>
  <radialGradient id="SVGID_2_" cx="668.355" cy="107.2004" r="8.4706" gradientTransform="matrix(.9808 -.1951 .1672 .8409 -488.7677 77.8873)" gradientUnits="userSpaceOnUse">
    <stop offset="0" stop-color="#9b643d"/>
    <stop offset="1" stop-color="#bf8f68"/>
  </radialGradient>
  <path fill="url(#SVGID_2_)" d="m181 25.7-10.7 2.1 3.9 19.4 11.5 1.9-4.7-23.4z"/>
  <ellipse cx="175" cy="34.6" class="st8" rx="1.5" ry="2.9" transform="rotate(-11.246 175.014484 34.592404)"/>
  <ellipse cx="189.6" cy="31.8" class="st8" rx="1.5" ry="2.9" transform="rotate(-11.246 189.61619 31.78027)"/>
  <path d="M179.6 39.1c.2 1.3 3.7 2.2 4.8 3.9 2.5-4.3-2.4-14.6-2.4-14.6s.2 4.4-.7 6.8c-.8 2.1-1.9 2.7-1.7 3.9zm23.3-.9-5 1-1.9-9.5 5-1c2.6-.5 5.2 1.2 5.7 3.8.5 2.6-1.2 5.2-3.8 5.7z" class="st3"/>
  <path d="M185.6 7.9c-.3 2-.1 8.5-4.6 14.7-6.6 9.1-13.1 10.4-12.7 16 .6 8.2 7.8 17.4-1.6 25.8 0 0 2.3-9.5-2.8-15-4-4.3-12.3-14.2-7.6-27.3C163 3.8 185.6 7.9 185.6 7.9z" class="st4"/>
  <path fill="#9a6541" d="M189.3 43.8c-.1.7-.3 1.3-.7 1.9-.4.6-.9 1-1.6 1.3-.6.3-1.4.5-2 .4-.7 0-1.3-.2-1.9-.6-.3-.2-.4-.6-.2-.9.1-.1.2-.2.4-.3h.1c.6-.1 1-.2 1.5-.3.4-.1.8-.2 1.2-.4s.7-.4 1.1-.7c.4-.3.7-.6 1.1-.9l.1-.1c.2-.2.6-.2.9.1-.1.2 0 .4 0 .5z"/>
  <circle cx="42.3" cy="126.3" r="42.3" class="st1"/>
  <path d="M52.9 140.3c-3.4-1.1-7.1-1.7-11.2-1.7l-16.7-.5c-7.6 0-14.8 2.1-21.1 5.8 6.7 14.6 21.4 24.8 38.5 24.8 13.8 0 26-6.6 33.8-16.8-10.3-8-22.4-11.4-23.3-11.6z" class="st5"/>
  <path d="M46 116c.7.4 1.3.8 1.9 1 .6.2 1.2.4 1.9.6.6.1 1.3.2 1.9.2.7 0 1.3-.1 2.2-.2.3-.1.6.1.6.4 0 .1 0 .3-.1.4-.5.8-1.4 1.4-2.3 1.7-.9.3-2 .4-2.9.2-1.9-.4-3.7-1.8-4.1-3.7-.1-.3.1-.6.4-.6.3-.1.4-.1.5 0z" class="st10"/>
  <radialGradient id="SVGID_3_" cx="-2253.0112" cy="277.6058" r="29.7772" gradientTransform="matrix(-1 0 .1632 -1.1178 -2248.9084 417.8641)" gradientUnits="userSpaceOnUse">
    <stop offset="0" stop-color="#915a37"/>
    <stop offset=".2948" stop-color="#b1805a"/>
    <stop offset=".5747" stop-color="#c89c75"/>
    <stop offset=".8188" stop-color="#d7ad85"/>
    <stop offset="1" stop-color="#dcb38b"/>
  </radialGradient>
  <path fill="url(#SVGID_3_)" d="M25.2 102.9h28.6s-3.3 24.2-3.7 29.4c-.4 5.3-.1 6.5 2.8 8-2.6 5.5-9.5 5.1-15.5 3.4-6.4-1.8-12.1-5.2-20.6-4.9 1.4-.7 4.3-3.1 5.3-5.6 4.1-10.5 3.1-30.3 3.1-30.3z"/>
  <linearGradient id="SVGID_4_" x1="26.5143" x2="26.5143" y1="355.1754" y2="345.1729" gradientTransform="rotate(-5.4 -2665.51049 94.574976)" gradientUnits="userSpaceOnUse">
    <stop offset="0" stop-color="#dcb38b"/>
    <stop offset="1" stop-color="#bf8f68"/>
  </linearGradient>
  <path fill="url(#SVGID_4_)" d="M47.1 105.9s-22.3 6.2-22.9 2.3c-.5-3.1-2.5-10.3-3.3-13.2-.4-1.5-.4-3 .1-4.4.9-2.6 3.3-4.6 6.3-4.9l17.6-1.8c5.6-.6 10.6 3.5 11.2 9.1l.2 1.7c.5 5.6-3.5 10.6-9.2 11.2z"/>
  <circle cx="26.5" cy="108.5" r="6.3" class="st13"/>
  <path d="M49.6 130.6c-11 1.1-20.9-6.9-22-18L26 95.7c-.5-4.5 2.8-8.5 7.3-9l29.1-2.9 2.8 27.8c.9 9.5-6 18-15.6 19z" class="st13"/>
  <path d="M55.3 89.2c-5.4-.8-9.1-3.6-16.9-2.2-8.3 1.4-11.4 3.8-11.4 3.8l-.2-2.5c-.3-5.7 2.7-11.7 9.6-10.9 8.3 1 6.2-2.2 10.7-2.9 4.3-.7 5.6 3.5 7.5 3.4 4.4-.3 3.1-6 9.8-5 5.8.9 10.7 19.3-9.1 16.3z" class="st10"/>
  <ellipse cx="43.9" cy="103.5" class="st14" rx="1.5" ry="2.8" transform="rotate(-5.71 43.894315 103.496794)"/>
  <radialGradient id="SVGID_5_" cx="-1809.2308" cy="448.7178" r="12.7468" gradientTransform="matrix(-.9666 .1037 .0935 .8713 -1741.5038 -93.7443)" gradientUnits="userSpaceOnUse">
    <stop offset="0" stop-color="#9b643d"/>
    <stop offset="1" stop-color="#bf8f68" stop-opacity="0"/>
  </radialGradient>
  <path fill="url(#SVGID_5_)" d="m68.1 126.2-15 1.5-1.3-13.2c-.1-.7.2-1.4.8-1.8l2.8-2.2c.6-.5.7-1.4.2-2l-3-3.8c-.7-.9-1.1-2-1.3-3.1l-1.4-14.2 15-1.5 3.2 40.3z"/>
  <path fill="#842e25" d="M45.5 115.6c-.6-.1-1.2.4-1.1 1 .2 2.4 2.1 4.1 4.6 4.6s4.7-.6 5.6-2.7c.2-.6-.2-1.2-.8-1.4l-8.3-1.5z"/>
  <path fill="#fff" d="m53.8 117.1-8.2-1.5c-.3 0-.6 0-.8.2.9.8 2.3 1.5 3.9 2 2.4.6 4.6.4 5.7-.4-.2-.2-.4-.3-.6-.3z"/>
  <linearGradient id="SVGID_6_" x1="18.4943" x2="18.4943" y1="355.1754" y2="345.1729" gradientTransform="rotate(-5.4 -2665.51049 94.574976)" gradientUnits="userSpaceOnUse">
    <stop offset="0" stop-color="#dcb38b"/>
    <stop offset="1" stop-color="#bf8f68"/>
  </linearGradient>
  <path fill="url(#SVGID_6_)" d="M25.3 87.9s9.2-3.4 10 4.1c.5 4.7-4.5 6.5-5.6 9.9-1.5.2-3.6.4-3.6.4l-.8-14.4z"/>
  <ellipse cx="57.1" cy="102.2" class="st14" rx="1.5" ry="2.8" transform="rotate(-5.71 57.096657 102.200495)"/>
  <circle cx="183.8" cy="186" r="42.3" class="st1"/>
  <path fill="#ee8f94" d="M162 222.3c6.4 3.8 13.8 6 21.7 6 9.5 0 18.2-3.1 25.2-8.3-3.5-9.9-9.9-17.4-20.7-17.4-10.1 0-19.7 7.2-26.2 19.7z"/>
  <radialGradient id="SVGID_7_" cx="176.0771" cy="-11.0487" r="15.5148" gradientTransform="matrix(1 0 0 -1 0 180)" gradientUnits="userSpaceOnUse">
    <stop offset=".0013" stop-color="#bf8f68"/>
    <stop offset=".0884" stop-color="#c4966f"/>
    <stop offset=".4012" stop-color="#d4ab84"/>
    <stop offset=".708" stop-color="#ddb791"/>
    <stop offset="1" stop-color="#e0bb95"/>
  </radialGradient>
  <path fill="url(#SVGID_7_)" d="M198.5 205.4c-2.6-1.6-6.5-1.8-11.6.2-6.4 2.5-10.2 2.7-12.1 1.5 1-.6 3.5-4.2 3.7-7.2.8-11.6-4.4-17.2-4.4-17.2l15.1-5.6s-.4 2.5 1.6 12.5c1.4 7.5 4.5 13.6 7.7 15.8z"/>
  <radialGradient id="SVGID_8_" cx="180.5201" cy="429.1228" r="38.8225" gradientTransform="rotate(12.986 1463.777136 132.086918)" gradientUnits="userSpaceOnUse">
    <stop offset="0" stop-color="#ee8f94"/>
    <stop offset=".0676" stop-color="#f09999"/>
    <stop offset=".3084" stop-color="#f4b6a9"/>
    <stop offset=".5468" stop-color="#f7cbb4"/>
    <stop offset=".7795" stop-color="#f9d8bb"/>
    <stop offset="1" stop-color="#fadcbd"/>
  </radialGradient>
  <path fill="url(#SVGID_8_)" d="M200.2 149.5c.6-12.3-11-18.3-23.8-16.1-8.2 1.4-14 8-15.2 2 0 0-7.2 4.8-7.2 12.1s5.8 11.1 12 10c4.1-.7 9-6.2 17.1-8.6 6.7-2 17.1.6 17.1.6z"/>
  <path d="M209.5 169.7c-3.1 12.2-14.8 19.6-26.1 16.7-11.3-2.9-18-15.1-14.9-27.3s10.2-20.5 26.1-16.7 18 15.1 14.9 27.3z" class="st22"/>
  <path d="m181.1 179.2 5.5 1.2c2.6.6 5.1-1 5.7-3.6l.1-.4c.6-2.6-1-5.1-3.6-5.7l-5.5-1.2-2.2 9.7z" class="st23"/>
  <path d="M169.2 190c-6.9-1.6-9.1-7.6-7.7-13.2l5.1-21.3c1.3-5.2 6.5-8.5 11.7-7.2 0 0 14.1 1.4 11.1 14.6l-4 16.7c-1.6 7.1-9.2 12-16.2 10.4z" class="st23"/>
  <path fill="none" d="M169.2 190c-6.9-1.6-9.1-7.6-7.7-13.2l5.1-21.3c1.3-5.2 6.5-8.5 11.7-7.2 0 0 14.1 1.4 11.1 14.6l-4 16.7c-1.6 7.1-9.2 12-16.2 10.4z"/>
  <path d="M193.5 153.1s4.6-3.3-10.1-6.7c-13.5-3.1-14.8 5.1-14.8 5.1l9.3 2.1c2.7.6 4.6 3.1 4.5 5.9l-.2 5.1c-.1 2.6 1.7 5 4.2 5.6l3 .7 4.1-17.8z" class="st22"/>
  <path d="M165 162.4c-1.1 4.6-3.8 5.7-5.4 7.1-.8.7-.9 1.8-.3 2.7.9 1.4 2.4 3.5 2.1 5.1l6.1 1.4 3.4-14.9-5.9-1.4z" class="st23"/>
  <path d="M164.4 179c.6 0 1.1 0 1.5-.1.4 0 .7-.1 1-.1.3-.1.6-.1.9-.3.4-.1.8-.4 1.4-.6h.1c.3-.1.6 0 .7.3v.2c0 .7-.2 1.3-.7 1.9-.4.6-1.1 1-1.9 1.2-.8.2-1.6 0-2.2-.3-.6-.3-1.1-.7-1.4-1.4-.1-.3 0-.6.2-.7.1 0 .1 0 .2-.1h.2z" class="st10"/>
  <circle cx="186.2" cy="184.2" r="4.4" fill="#e86e58"/>
  <ellipse cx="169" cy="167.3" class="st8" rx="2.8" ry="1.4" transform="rotate(-77.355 169.02818 167.293338)"/>
  <path d="M174.6 126h-49.1c-6.3 0-11.4-5.1-11.4-11.4V97.2c0-8.3 6.7-15 15-15h45.4c6.3 0 11.4 5.1 11.4 11.4v21.1c0 6.2-5 11.3-11.3 11.3z" class="st26"/>
  <path fill="#bdbde6" d="M133.1 107.5h34v5.9h-34zm0-12.8h28.1v5.9h-28.1z"/>
  <path d="m156.9 122.9 14.7 10.5c1.2.9 2.9 0 2.9-1.5v-11l-17.6 2z" class="st26"/>
  <path d="M91.4 154.8h42.8c8.3 0 15-6.7 15-15v-17.5c0-6.3-5.1-11.4-11.4-11.4H91.4c-6.3 0-11.4 5.1-11.4 11.4v21.1c.1 6.3 5.2 11.4 11.4 11.4z" class="st5"/>
  <path d="M99.4 123.5h30.5v5.9H99.4zm0 12.8h25.2v5.9H99.4z" class="st28"/>
  <path d="m107.8 151.7-14.7 10.5c-1.2.9-2.9 0-2.9-1.5v-11l17.6 2z" class="st5"/>
  <path fill="none" stroke="#f7c6c8" stroke-linecap="round" stroke-miterlimit="10" stroke-width="3.0019" d="m101.5 114.6-4-10.4c-1-2.7-4.1-4-6.8-3h0c-2.7 1-4 4.1-3 6.8l6.3 16.3c.6 1.5 2.2 2.2 3.7 1.6h0c1.5-.6 2.2-2.2 1.6-3.7l-5.6-14.3"/>
  <path d="M104.8 110.9h-7.4l3.7 6.7h3.7zm4.6-36.7-7.7-10.5h20.7l-7.7 10.5c-1.4 1.8-4 1.8-5.3 0z" class="st5"/>
  <path d="M114 68.8c-6.9 1.1-13.5-3.6-14.6-10.5-1.1-6.9 3.6-13.5 10.5-14.6 6.9-1.1 13.5 3.6 14.6 10.5 1.2 6.9-3.5 13.5-10.5 14.6z" class="st5"/>
  <path d="M113 62.5c-3.2.5-6.2-1.7-6.8-4.9-.5-3.2 1.7-6.2 4.9-6.8 3.2-.5 6.2 1.7 6.8 4.9.4 3.3-1.7 6.3-4.9 6.8z" class="st28"/>
</svg>