<svg xmlns="http://www.w3.org/2000/svg" viewBox="0 0 185.3466 183.4216">
  <path fill="#E1DFDD" d="M16.3968 91.2607c0 46.2644 37.5049 83.7693 83.7693 83.7693s83.7693-37.5049 83.7693-83.7693-37.5048-83.7693-83.7693-83.7693c-24.9524 0-47.3567 10.9097-62.703 28.2195-13.1077 14.7846-21.0663 34.2379-21.0663 55.5498z"/>
  <path fill="#8B8CC4" d="M125.1238 131.5212c-18.6396 9.3958-32.5386 24.446-40.7083 42.009 5.1035.9714 10.3643 1.4998 15.7505 1.4998 35.0886 0 65.1208-21.5825 77.5913-52.1895-17.4157-2.4714-35.7353.1631-52.6335 8.6807z"/>
  <path fill="#E0BB95" d="M135.2626 151.3163c-11.8044 5.9502-25.669 2.2631-31.6191-9.5413L90.6713 116.04c-4.7201-9.3641-.9555-20.7815 8.4086-25.5017l8.837-4.4545c9.3641-4.7201 20.7815-.9555 25.5017 8.4086l12.9722 25.735c5.9501 11.8045.6762 25.1387-11.1282 31.0889z"/>
  <ellipse cx="86.9104" cy="115.8439" fill="#E0BB95" rx="8.273" ry="8.2731"/>
  <path fill="#BF8F68" d="m128.2026 118.5071-18.5809 9.366c-7.8318 3.9478-19.8267-.0074-24.7855-9.845l-7.3236-14.5289c-4.9588-9.8376-1.0038-21.8326 8.8338-26.7915l14.0774-7.096c11.2171-5.6542 24.8938-1.1445 30.548 10.0725l6.0646 12.0313c4.9589 9.8379 3.0098 20.8217-8.8338 26.7916z"/>
  <path fill="#BBB0D6" d="M99.4417 143.1998c.075-.0437.1572-.0847.2321-.1284l-.0097-.0072-.2224.1356z"/>
  <path fill="#BF8F68" d="m91.35077 97.65893 38.52369-19.05769 6.1681 12.46834-38.5237 19.0577z"/>
  <ellipse cx="134.8022" cy="91.7033" fill="#E0BB95" rx="8.2731" ry="8.273"/>
  <path fill="#BF8F68" d="M114.8063 104.7504c-5.5496-2.8726-12.3472-3.1507-18.3764-.1651-4.2073 2.0835-7.3753 5.4266-9.274 9.3487-1.3769 2.8438-2.0821 5.9896-2.0404 9.1808.0449 2.9369.7267 5.9124 2.1179 8.7217 4.9844 10.0651 17.1817 14.1829 27.2468 9.1986 3.4136-1.6904 6.1462-4.2118 8.0683-7.2019 3.7466-5.8143 4.4285-13.3956 1.1345-20.0471-1.9984-4.036-5.1575-7.1155-8.8767-9.0357z"/>
  <path fill="#BF8F68" d="M136.0774 94.0811c-5.5496-2.8726-12.3472-3.1507-18.3763-.1651-4.2073 2.0835-7.3753 5.4266-9.274 9.3487-1.3769 2.8438-2.0821 5.9896-2.0404 9.1808.0449 2.9369.7267 5.9124 2.1179 8.7217 4.9844 10.0651 17.1817 14.1829 27.2468 9.1986 3.4136-1.6904 6.1463-4.2118 8.0683-7.2019 3.7466-5.8143 4.4285-13.3956 1.1345-20.0471-1.9986-4.0361-5.1576-7.1155-8.8768-9.0357z"/>
  <path fill="#E0BB95" d="m104.9809 75.4516-14.62 7.2004c-8.291 4.1059-12.4618 12.7411-9.2683 19.1896l15.1028 30.4974c3.1934 6.4483 12.5898 8.3653 20.8806 4.2595l14.6201-7.2003c8.291-4.1059 12.4617-12.7413 9.2683-19.1896l-15.1028-30.4974c-3.1935-6.4486-12.5895-8.3653-20.8807-4.2596z"/>
  <path fill="#9C96AE" d="m91.3186 124.6248.0152-.0056c-.0378-.055-.0686-.107-.1064-.1623l.0912.1679z"/>
  <path fill="#BF8F68" d="m130.455 78.6748-6.1351.4738 6.1359 12.3806c1.9995 4.0358.4417 8.8823-3.4809 10.8289l-41.3563 20.5556c.079 3.0035.8168 6.0553 2.2883 8.9345 5.0916 9.9622 16.7701 14.2 26.9478 9.0535l13.9834-6.9213.0006-.0015 5.7213-2.8129c11.9828-6.0625 12.6124-18.937 6.3779-31.2622l-10.4829-21.229zm-32.0801-8.0301s-17.7435 8.7206-18.3584 8.9497c-5.2596 2.6512-8.3674-2.7629-8.3674-2.7629s-4.1768 6.7493-1.1681 12.0046c.6767 1.5989 4.5909 6.3037 10.457 3.3469l34.1868-17.2572-2.992-5.2578-13.7579.9767z"/>
  <ellipse cx="118.0415" cy="96.5717" fill="#33312D" rx="1.8458" ry="3.2868" transform="rotate(-26.35 118.038 96.57875)"/>
  <radialGradient id="a" cx="-2984.1389" cy="-206.0836" r="11.0115" gradientTransform="matrix(-.9055 .4244 -.3201 -.6829 -2656.1079 1230.9791)" gradientUnits="userSpaceOnUse">
    <stop offset=".3127" style="stop-color:#9b643d"/>
    <stop offset=".919" style="stop-color:#ba8a63;stop-opacity:.1178"/>
    <stop offset="1" style="stop-color:#bf8f68;stop-opacity:0"/>
  </radialGradient>
  <path fill="url(#a)" d="m101.3762 88.6198 15.5031 32.0543-14.8326 7.0213-15.5034-32.0542z"/>
  <ellipse cx="98.6552" cy="106.189" fill="#33312D" rx="1.8459" ry="3.2868" transform="rotate(-26.35 98.651 106.19522)"/>
  <path fill="#E3646A" d="M95.9201 117.146c-2.8751-.4718-5.3947-2.0354-7.0935-4.4027-3.5076-4.8858-2.3867-11.7153 2.4996-15.2232 4.8871-3.4694 11.7153-2.3868 15.2232 2.4996 1.6994 2.3669 2.3753 5.2542 1.9031 8.1296s-2.0359 5.395-4.4031 7.0939c-.0239.0176-.0482.0348-.0724.0519-2.353 1.6608-5.2111 2.3184-8.0569 1.8509zm-3.0692-17.5021c-3.7148 2.6674-4.5673 7.8596-1.9006 11.5744 1.2919 1.7996 3.2074 2.9881 5.3933 3.3473 2.1638.3554 4.3366-.1446 6.1255-1.4074.0185-.0131.037-.0262.0551-.0389 1.7997-1.2918 2.9886-3.2077 3.3475-5.394.3592-2.1858-.1545-4.3809-1.4463-6.1806-2.6545-3.6968-7.8088-4.5589-11.5201-1.9389-.0182.0125-.0362.0253-.0544.0381z"/>
  <path fill="#E0BB95" d="M114.7007 102.3621c-1.3064-2.6381-4.3345-6.3961-6.9725-5.0896 0 0 .7551 1.9673.0558 3.6474-.4041.9706-3.9262 2.6339-2.6764 6.193 1.1725 3.3395 4.6219 4.0392 7.172 2.4212 2.6381-1.3063 3.7277-4.5337 2.4211-7.172z"/>
  <path fill="#E3646A" d="M116.8201 106.9984c-2.8754-.4723-5.395-2.0359-7.0939-4.4031-1.6994-2.3669-2.375-5.2536-1.9027-8.1291.4718-2.875 2.0354-5.3947 4.4027-7.0935 4.8569-3.5406 11.7153-2.3867 15.2232 2.4996 3.5076 4.8858 2.3868 11.7153-2.4996 15.2232-.0239.0176-.0477.0344-.0719.0515-2.3539 1.6614-5.212 2.3188-8.0578 1.8514zm-3.0689-17.5021c-1.7996 1.2919-2.9881 3.2074-3.3473 5.3933-.3589 2.1863.1548 4.3814 1.4463 6.1806 1.2918 1.7997 3.2077 2.9886 5.394 3.3476 2.1861.3597 4.3497-.1452 6.1806-1.4463 3.7148-2.6674 4.5672-7.8596 1.9006-11.5743-2.6545-3.6968-7.8088-4.5589-11.5201-1.9389a3.48618 3.48618 0 0 0-.0541.038z"/>
  <path fill="#E3646A" d="m110.5806 99.8534-4.8114 2.3019-1.1612-2.3431 4.8114-2.3019zm24.9937-10.7945-8.2501 4.0352-1.1627-2.3423 8.2501-4.0352z"/>
  <path fill="#9B643D" d="M111.1784 116.6627c.8177-.3854 1.4814-.7462 2.1509-1.1245.6626-.3743 1.2981-.7601 1.9138-1.1578.6154-.3993 1.2083-.8084 1.7826-1.2574.5809-.4529 1.1285-.9281 1.7556-1.5928l.0407-.0432c.2248-.2383.6001-.2492.8384-.0245.0894.0844.1467.1898.1717.3015.2411 1.0734-.0695 2.2064-.6029 3.131-.5423.9325-1.3127 1.6938-2.1844 2.2597-.8738.5655-1.858.9447-2.892 1.0898-1.0241.1339-2.1485.0558-3.1009-.5128-.2779-.1659-.3686-.5256-.2027-.8035a.58287.58287 0 0 1 .2535-.2298l.0757-.0357z"/>
  <path fill="#BF8F68" d="m78.58083 105.60593 2.52237-1.27135 10.18216 20.20145-2.52237 1.27135z"/>
  <path fill="#BF8F68" d="m83.276 110.4673 1.649-.8313 3.2369 6.5152c1.2146 2.4448 4.1828 3.44 6.6257 2.2214l2.1869-1.0909 2.6551 5.2673-8.2166 4.1071-8.137-16.1888z"/>
  <path fill="#E3646A" d="m90.3894 111.8352-6.967 3.3884-1.1701-2.3386 6.967-3.3885z"/>
  <path fill="#FFF" d="M68.3037 54.8488c5.2299-5.7798 8.3537-13.1038 8.3537-21.0597 0-.702-.0234-1.3922-.0702-2.0826-.0936-1.3221-.2691-2.6208-.5265-3.8961v-.0117C72.8433 11.9923 57.1772 0 38.3287 0 17.1638 0 0 15.1279 0 33.7891s17.1637 33.7891 38.3287 33.7891c8.2952 0 15.9703-2.3165 22.2297-6.271 3.1356 3.0185 7.3943 4.8788 12.0977 4.8788 1.5327 0 3.0069-.1989 4.4225-.5616-4.247-2.1996-7.4645-6.0956-8.7749-10.7756z"/>
  <path fill="#A6A7DC" d="M41.7349 16.164c1.254.4104 2.3441 1.0032 3.2711 1.7777.9726.8058 1.7249 1.7863 2.2565 2.9405.5323 1.1549.798 2.4396.798 3.8525 0 1.6259-.4332 3.222-1.2996 4.7866-.6833 1.2006-1.7399 2.5073-3.1678 3.9209-.0763.0606-.1638.1403-.2622.2394-.0991.099-.2244.2088-.3762.3306-.6077.5465-1.0638 1.0103-1.368 1.3901-.4097.5016-.6227 1.0566-.6377 1.6644-.0157.2123-.0228.5394-.0228.9797 0 1.2006-.1524 2.0898-.456 2.6669-.4104.7296-1.2006 1.0944-2.3705 1.0944-1.2006 0-2.0214-.4866-2.4617-1.4592-.3043-.6833-.456-1.6943-.456-3.0317 0-1.0481.1631-2.0057.4902-2.8721.3263-.8657.7709-1.6865 1.3331-2.4617.5472-.7139 1.1172-1.3445 1.7093-1.8917.7146-.6683 1.311-1.2682 1.7898-1.8005.4788-.5323.8771-1.0716 1.1963-1.6188.3498-.5771.5244-1.2227.5244-1.9373 0-1.1243-.4638-1.9979-1.3901-2.6213-.7752-.4859-1.7863-.7296-3.0317-.7296-.5629 0-1.1058.0841-1.6302.2508-.5237.1674-1.1129.4026-1.7663.7068-.7296.3342-1.2961.5778-1.6979.7296-.4033.1517-.8023.228-1.197.228-.7902 0-1.4663-.2964-2.0285-.8892-.5928-.5622-.8892-1.2383-.8892-2.0285 0-1.0488.5999-1.9836 1.8005-2.8037.9576-.6235 2.2415-1.14 3.8525-1.5504 1.2768-.3192 2.4617-.4788 3.5561-.4788 1.3672 0 2.6783.2052 3.9316.6156zm-2.0285 28.8578c.4482.1974.8393.4631 1.1742.7973.3342.3349.5999.726.7973 1.1742.1974.4482.2964.9084.2964 1.3787 0 .4717-.0991.9312-.2964 1.3794-.1974.4482-.4631.84-.7973 1.1742-.3349.3342-.726.5999-1.1742.7973-.4482.1981-.9084.2964-1.3787.2964-.4717 0-.9312-.0983-1.3794-.2964-.4482-.1974-.84-.4631-1.1742-.7973-.3342-.3342-.5999-.726-.7973-1.1742-.1981-.4482-.2964-.9077-.2964-1.3794 0-.4702.0983-.9305.2964-1.3787.1974-.4482.4631-.8393.7973-1.1742.3342-.3342.726-.5999 1.1742-.7973.4482-.1974.9077-.2964 1.3794-.2964.4702-.0001.9305.099 1.3787.2964z"/>
  <g fill="#E0BB95">
    <path d="M99.6352 181.9727c-2.0766-.3179-3.5023-2.259-3.1844-4.3356l1.4615-9.5476c.3179-2.0766 2.259-3.5023 4.3356-3.1844 2.0766.3179 3.5023 2.259 3.1844 4.3356l-1.4615 9.5476c-.3179 2.0766-2.259 3.5023-4.3356 3.1844z"/>
    <path d="M92.8584 183.3772c-2.0766-.3179-3.5023-2.259-3.1844-4.3356l2.048-13.3787c.3179-2.0766 2.259-3.5023 4.3356-3.1845 2.0766.3179 3.5023 2.259 3.1844 4.3356l-2.048 13.3787c-.318 2.0767-2.2591 3.5024-4.3356 3.1845z"/>
    <path d="M86.06 181.3929c-2.0766-.3179-3.5023-2.259-3.1844-4.3356l1.802-11.7715c.3179-2.0766 2.259-3.5023 4.3356-3.1844 2.0765.3179 3.5023 2.259 3.1844 4.3356l-1.802 11.7715c-.3179 2.0766-2.2591 3.5023-4.3356 3.1844z"/>
    <path d="M80.849 178.2067c-2.0953-.1504-3.6721-1.9709-3.5218-4.0663l.5689-7.9284c.1504-2.0954 1.9709-3.6721 4.0663-3.5218 2.0953.1504 3.6721 1.9709 3.5218 4.0663l-.5689 7.9284c-.1504 2.0954-1.971 3.6721-4.0663 3.5218z"/>
  </g>
  <g fill="#E0BB95">
    <path d="M176.3683 137.9341c1.1432-1.7625.6412-4.118-1.1213-5.2612l-8.1034-5.2561c-1.7625-1.1432-4.118-.6412-5.2612 1.1213-1.1432 1.7625-.6412 4.118 1.1213 5.2612l8.1034 5.2562c1.7624 1.1431 4.118.641 5.2612-1.1214z"/>
    <path d="M181.7773 133.3764c1.1432-1.7625.6412-4.118-1.1213-5.2612l-11.3551-7.3653c-1.7625-1.1432-4.118-.6412-5.2612 1.1213-1.1432 1.7625-.6412 4.118 1.1213 5.2612l11.3551 7.3653c1.7625 1.1432 4.1181.6412 5.2612-1.1213z"/>
    <path d="M184.7336 127.1391c1.1432-1.7625.6412-4.118-1.1213-5.2612l-9.991-6.4805c-1.7625-1.1432-4.118-.6412-5.2612 1.1213-1.1432 1.7625-.6412 4.118 1.1213 5.2612l9.991 6.4805c1.7625 1.1432 4.1181.6412 5.2612-1.1213z"/>
    <path d="M184.7109 119.1376c1.1432-1.7625.6412-4.118-1.1213-5.2612l-5.6767-3.6821c-1.7625-1.1432-4.118-.6412-5.2612 1.1213-1.1432 1.7625-.6412 4.118 1.1213 5.2612l5.6767 3.6821c1.7624 1.1432 4.118.6412 5.2612-1.1213z"/>
  </g>
  <path fill="#BF8F68" d="M130.8084 80.991c-4.1049-6.8525-11.3472-10.8523-18.9274-11.066-.0681 2.022.3541 4.0891 1.329 6.0231 3.1009 6.1516 10.6014 8.6248 16.753 5.5239.293-.1475.5695-.3141.8454-.481z"/>
</svg>